<?xml version="1.0" standalone="no"?><!DOCTYPE svg PUBLIC "-//W3C//DTD SVG 1.1//EN" "http://www.w3.org/Graphics/SVG/1.1/DTD/svg11.dtd"><svg t="1572083101957" class="icon" viewBox="0 0 1024 1024" version="1.1" xmlns="http://www.w3.org/2000/svg" p-id="2484" xmlns:xlink="http://www.w3.org/1999/xlink" width="200" height="200"><defs><style type="text/css"></style></defs><path d="M1011.968 43.552 1011.296 269.44C1011.04 282.08 1000.576 289.6 987.904 289.92L971.84 289.92C959.2 290.208 949.184 279.2 949.472 266.56L950.336 114.944 681.184 382.432C668.96 394.656 649.152 394.656 636.928 382.432 624.704 370.208 624.704 350.4 636.928 338.176L905.12 71.616 757.216 71.232C744.576 71.52 732.864 62.784 730.944 47.872L730.976 31.84C731.264 19.168 741.728 8.704 754.368 8.416L978.784 9.408C979.008 9.376 979.168 9.312 979.392 9.312L990.848 9.024C997.152 8.864 1002.848 11.36 1006.88 15.424 1010.976 19.488 1012.48 25.152 1012.352 31.52L1011.104 42.976C1011.104 43.168 1011.968 43.36 1011.968 43.552ZM118.112 945.152 266.016 945.536C278.656 945.28 290.368 953.984 292.288 968.896L292.256 984.96C291.936 997.6 281.504 1008.064 268.864 1008.352L43.488 1007.36C43.232 1007.392 43.072 1007.488 42.848 1007.488L31.392 1007.744C25.088 1007.904 19.392 1005.408 15.36 1001.344 11.264 997.28 9.792 991.616 9.92 985.248L11.136 973.824C11.136 973.6 10.304 973.44 10.304 973.216L10.944 747.328C11.232 734.688 21.696 727.168 34.336 726.88L51.392 726.848C64.032 726.56 74.048 737.568 73.76 750.208L72.896 901.024 342.048 634.336C354.272 622.144 374.08 622.144 386.304 634.336 398.528 646.56 398.528 666.368 386.304 678.592L118.112 945.152ZM342.048 382.432 72.896 115.776 73.76 266.56C74.048 279.2 64.032 290.208 51.392 289.92L34.336 289.92C21.696 289.6 11.232 282.08 10.944 269.44L10.304 43.552C10.304 43.36 11.136 43.168 11.136 42.976L9.92 31.52C9.792 25.152 11.264 19.488 15.36 15.424 19.392 11.36 25.088 8.864 31.392 9.024L42.848 9.312C43.072 9.312 43.232 9.376 43.488 9.408L268.864 8.416C281.504 8.704 291.936 19.168 292.256 31.84L292.288 47.872C290.368 62.784 278.656 71.52 266.016 71.232L118.112 71.616 386.304 338.176C398.528 350.4 398.528 370.208 386.304 382.432 374.08 394.656 354.272 394.656 342.048 382.432ZM681.184 634.336 950.336 901.824 949.472 750.208C949.184 737.568 959.2 726.56 971.84 726.848L987.904 726.88C1000.576 727.168 1011.04 734.688 1011.296 747.328L1011.968 973.216C1011.968 973.44 1011.104 973.6 1011.104 973.824L1012.352 985.248C1012.48 991.616 1010.976 997.28 1006.88 1001.344 1002.848 1005.408 997.152 1007.904 990.848 1007.744L979.392 1007.488C979.168 1007.488 979.008 1007.392 978.784 1007.36L754.368 1008.352C741.728 1008.064 731.264 997.6 730.976 984.96L730.944 968.896C732.864 953.984 744.576 945.28 757.216 945.536L905.12 945.152 636.928 678.592C624.704 666.368 624.704 646.56 636.928 634.336 649.152 622.144 668.96 622.144 681.184 634.336Z" p-id="2485"></path></svg>