<?xml version="1.0" standalone="no"?><!DOCTYPE svg PUBLIC "-//W3C//DTD SVG 1.1//EN" "http://www.w3.org/Graphics/SVG/1.1/DTD/svg11.dtd"><svg t="1572504411078" class="icon" viewBox="0 0 1024 1024" version="1.1" xmlns="http://www.w3.org/2000/svg" p-id="2325" xmlns:xlink="http://www.w3.org/1999/xlink" width="200" height="200"><defs><style type="text/css"></style></defs><path d="M800.128 727.36l-9.856 12.608a16 16 0 0 1-22.464 2.768L214.144 310.16a16 16 0 0 1-2.752-22.464l9.856-12.608a16 16 0 0 1 22.448-2.752l553.664 432.576a16 16 0 0 1 2.768 22.448z m-385.184-70.336l-1.728-1.68a18.912 18.912 0 0 0-13.84-6.064h-77.744c-22.24 0-26.928-0.576-36.256-10.192-9.072-9.376-9.472-13.04-9.472-35.872V431.328a16 16 0 0 1 16-16h16a16 16 0 0 1 16 16V601.28h75.472c18.112 0 35.424 7.36 48.032 20.368l162.4 142.368v-78.752a16 16 0 0 1 16-16h16a16 16 0 0 1 16 16v82.832c0 19.808-0.08 26.32-0.64 33.392-1.328 16.432-4.368 25.952-17.92 32.224-14.752 6.8-24.512 1.84-37.072-9.36-5.184-4.624-10.16-9.76-22.208-22.672l-165.024-144.64z m11.056-289.216a16 16 0 0 1 1.488-22.56l152.992-134.112c12.032-12.912 17.024-18.064 22.208-22.672 12.56-11.2 22.32-16.16 37.056-9.36 13.568 6.272 16.608 15.792 17.92 32.208 0.576 7.088 0.656 13.6 0.656 33.408v268.992a16 16 0 0 1-16 16h-16a16 16 0 0 1-16-16V248.8l-151.2 132.528a16 16 0 0 1-22.56-1.488l-10.56-12.032z" p-id="2326"></path></svg>