<?xml version="1.0" standalone="no"?><!DOCTYPE svg PUBLIC "-//W3C//DTD SVG 1.1//EN" "http://www.w3.org/Graphics/SVG/1.1/DTD/svg11.dtd"><svg t="1572082298791" class="icon" viewBox="0 0 1024 1024" version="1.1" xmlns="http://www.w3.org/2000/svg" p-id="7376" xmlns:xlink="http://www.w3.org/1999/xlink" width="200" height="200"><defs><style type="text/css"></style></defs><path d="M392.2 482.2H154c-49.7 0-90-40.3-90-90V154c0-49.7 40.3-90 90-90h238.2c49.7 0 90 40.3 90 90v238.2c0 49.7-40.3 90-90 90zM870 482.2H631.9c-49.7 0-90-40.3-90-90V154c0-49.7 40.3-90 90-90H870c49.7 0 90 40.3 90 90v238.2c0 49.7-40.2 90-90 90zM392.2 960H154c-49.7 0-90-40.3-90-90V631.9c0-49.7 40.3-90 90-90h238.2c49.7 0 90 40.3 90 90V870c0 49.8-40.3 90-90 90zM870 960H631.9c-49.7 0-90-40.3-90-90V631.9c0-49.7 40.3-90 90-90H870c49.7 0 90 40.3 90 90V870c0 49.8-40.2 90-90 90z" fill="#909399" p-id="7377"></path></svg>