<?xml version="1.0" standalone="no"?><!DOCTYPE svg PUBLIC "-//W3C//DTD SVG 1.1//EN" "http://www.w3.org/Graphics/SVG/1.1/DTD/svg11.dtd"><svg t="1572082302980" class="icon" viewBox="0 0 1024 1024" version="1.1" xmlns="http://www.w3.org/2000/svg" p-id="7488" xmlns:xlink="http://www.w3.org/1999/xlink" width="200" height="200"><defs><style type="text/css"></style></defs><path d="M193.2 243.2H114c-27.6 0-50-22.4-50-50V114c0-27.6 22.4-50 50-50h79.2c27.6 0 50 22.4 50 50v79.2c0 27.6-22.4 50-50 50zM432.1 243.2h-79.2c-27.6 0-50-22.4-50-50V114c0-27.6 22.4-50 50-50h79.2c27.6 0 50 22.4 50 50v79.2c0 27.6-22.4 50-50 50zM672.9 243.2h-79.2c-27.6 0-50-22.4-50-50V114c0-27.6 22.4-50 50-50h79.2c27.6 0 50 22.4 50 50v79.2c0 27.6-22.4 50-50 50zM910 243.2h-79.2c-27.6 0-50-22.4-50-50V114c0-27.6 22.4-50 50-50H910c27.6 0 50 22.4 50 50v79.2c0 27.6-22.4 50-50 50zM193.2 482.1H114c-27.6 0-50-22.4-50-50v-79.2c0-27.6 22.4-50 50-50h79.2c27.6 0 50 22.4 50 50v79.2c0 27.6-22.4 50-50 50zM432.1 482.1h-79.2c-27.6 0-50-22.4-50-50v-79.2c0-27.6 22.4-50 50-50h79.2c27.6 0 50 22.4 50 50v79.2c0 27.6-22.4 50-50 50zM672.9 482.1h-79.2c-27.6 0-50-22.4-50-50v-79.2c0-27.6 22.4-50 50-50h79.2c27.6 0 50 22.4 50 50v79.2c0 27.6-22.4 50-50 50zM910 482.1h-79.2c-27.6 0-50-22.4-50-50v-79.2c0-27.6 22.4-50 50-50H910c27.6 0 50 22.4 50 50v79.2c0 27.6-22.4 50-50 50zM193.2 721.1H114c-27.6 0-50-22.4-50-50v-79.2c0-27.6 22.4-50 50-50h79.2c27.6 0 50 22.4 50 50v79.2c0 27.6-22.4 50-50 50zM432.1 721.1h-79.2c-27.6 0-50-22.4-50-50v-79.2c0-27.6 22.4-50 50-50h79.2c27.6 0 50 22.4 50 50v79.2c0 27.6-22.4 50-50 50zM672.9 721.1h-79.2c-27.6 0-50-22.4-50-50v-79.2c0-27.6 22.4-50 50-50h79.2c27.6 0 50 22.4 50 50v79.2c0 27.6-22.4 50-50 50zM910 721.1h-79.2c-27.6 0-50-22.4-50-50v-79.2c0-27.6 22.4-50 50-50H910c27.6 0 50 22.4 50 50v79.2c0 27.6-22.4 50-50 50zM193.2 960H114c-27.6 0-50-22.4-50-50v-79.2c0-27.6 22.4-50 50-50h79.2c27.6 0 50 22.4 50 50V910c0 27.6-22.4 50-50 50zM432.1 960h-79.2c-27.6 0-50-22.4-50-50v-79.2c0-27.6 22.4-50 50-50h79.2c27.6 0 50 22.4 50 50V910c0 27.6-22.4 50-50 50zM672.9 960h-79.2c-27.6 0-50-22.4-50-50v-79.2c0-27.6 22.4-50 50-50h79.2c27.6 0 50 22.4 50 50V910c0 27.6-22.4 50-50 50zM910 960h-79.2c-27.6 0-50-22.4-50-50v-79.2c0-27.6 22.4-50 50-50H910c27.6 0 50 22.4 50 50V910c0 27.6-22.4 50-50 50z" fill="#909399" p-id="7489"></path></svg>