<?xml version="1.0" standalone="no"?><!DOCTYPE svg PUBLIC "-//W3C//DTD SVG 1.1//EN" "http://www.w3.org/Graphics/SVG/1.1/DTD/svg11.dtd"><svg t="1572082294693" class="icon" viewBox="0 0 1024 1024" version="1.1" xmlns="http://www.w3.org/2000/svg" p-id="7264" xmlns:xlink="http://www.w3.org/1999/xlink" width="200" height="200"><defs><style type="text/css"></style></defs><path d="M252.9 302.9H114c-27.6 0-50-22.4-50-50V114c0-27.6 22.4-50 50-50h138.9c27.6 0 50 22.4 50 50v138.9c0 27.6-22.4 50-50 50zM551.6 302.9H412.7c-27.6 0-50-22.4-50-50V114c0-27.6 22.4-50 50-50h138.9c27.6 0 50 22.4 50 50v138.9c0 27.6-22.4 50-50 50zM910 302.9H711.3c-27.6 0-50-22.4-50-50V114c0-27.6 22.4-50 50-50H910c27.6 0 50 22.4 50 50v138.9c0 27.6-22.4 50-50 50zM252.9 601.6H114c-27.6 0-50-22.4-50-50V412.7c0-27.6 22.4-50 50-50h138.9c27.6 0 50 22.4 50 50v138.9c0 27.6-22.4 50-50 50zM551.6 601.6H412.7c-27.6 0-50-22.4-50-50V412.7c0-27.6 22.4-50 50-50h138.9c27.6 0 50 22.4 50 50v138.9c0 27.6-22.4 50-50 50zM910 601.6H711.3c-27.6 0-50-22.4-50-50V412.7c0-27.6 22.4-50 50-50H910c27.6 0 50 22.4 50 50v138.9c0 27.6-22.4 50-50 50zM252.9 960H114c-27.6 0-50-22.4-50-50V711.3c0-27.6 22.4-50 50-50h138.9c27.6 0 50 22.4 50 50V910c0 27.6-22.4 50-50 50zM551.6 960H412.7c-27.6 0-50-22.4-50-50V711.3c0-27.6 22.4-50 50-50h138.9c27.6 0 50 22.4 50 50V910c0 27.6-22.4 50-50 50zM910 960H711.3c-27.6 0-50-22.4-50-50V711.3c0-27.6 22.4-50 50-50H910c27.6 0 50 22.4 50 50V910c0 27.6-22.4 50-50 50z" fill="#909399" p-id="7265"></path></svg>